<?xml version="1.0" standalone="no"?>
<!DOCTYPE svg PUBLIC "-//W3C//DTD SVG 20010904//EN"
 "http://www.w3.org/TR/2001/REC-SVG-20010904/DTD/svg10.dtd">
<svg version="1.0" xmlns="http://www.w3.org/2000/svg"
 width="700.000000pt" height="700.000000pt" viewBox="0 0 700.000000 700.000000"
 preserveAspectRatio="xMidYMid meet">
<metadata>
Created by potrace 1.14, written by Peter Selinger 2001-2017
</metadata>
<g transform="translate(0.000000,700.000000) scale(0.100000,-0.100000)"
fill="#000000" stroke="none">
<path d="M590 6558 c-155 -16 -280 -77 -395 -193 -84 -83 -127 -152 -168 -267
l-22 -63 -2 -2505 c-1 -1691 1 -2523 8 -2559 53 -275 285 -492 564 -528 57 -8
5800 -7 5858 0 142 19 310 110 405 221 63 72 127 199 147 288 11 52 13 405 12
2103 -2 1983 -3 2041 -21 2075 -44 81 -130 127 -216 117 -70 -8 -120 -39 -160
-99 l-35 -51 -1 -2016 c-1 -1591 -4 -2025 -14 -2055 -16 -49 -63 -102 -114
-128 -37 -19 -59 -21 -226 -23 l-186 -1 32 76 c18 41 35 86 38 100 2 14 10 48
17 75 17 72 20 4787 3 4890 -38 219 -179 402 -379 490 -137 61 40 57 -2630 59
-1342 0 -2474 -2 -2515 -6z m4962 -450 c50 -22 94 -66 117 -119 20 -43 20 -77
18 -2419 l-2 -2375 -23 -57 c-18 -43 -40 -72 -92 -121 -83 -76 -153 -115 -240
-131 -50 -9 -619 -12 -2395 -11 l-2330 1 -42 22 c-54 28 -81 56 -106 112 -20
45 -20 55 -20 2495 l0 2450 22 43 c12 23 35 55 52 70 68 61 -117 57 2559 56
2221 0 2448 -2 2482 -16z"/>
<path d="M884 5682 c-6 -4 -10 -173 -9 -437 l0 -430 2188 -2 2187 -2 0 439 0
438 -2178 0 c-1198 0 -2183 -3 -2188 -6z"/>
<path d="M881 4370 c-4 -3 -7 -296 -6 -653 0 -567 2 -648 15 -651 20 -6 1701
-6 1720 0 13 3 15 83 15 654 0 357 -2 651 -5 651 -17 4 -1733 3 -1739 -1z"/>
<path d="M3065 4370 c-5 -10 -2 -430 4 -431 8 -1 820 -1 847 0 20 1 21 6 21
219 l1 217 -435 0 c-239 0 -436 -2 -438 -5z"/>
<path d="M4379 4370 c-1 -3 -2 -101 -3 -217 -1 -136 3 -213 9 -214 13 -1 825
-1 848 0 16 1 17 18 17 219 l0 217 -435 0 c-239 0 -436 -2 -436 -5z"/>
<path d="M3063 3283 l2 -218 435 0 435 0 1 218 2 217 -438 0 -438 0 1 -217z"/>
<path d="M4375 3283 l0 -218 438 -1 437 -2 0 219 0 219 -438 0 -437 0 0 -217z"/>
<path d="M881 2620 c-4 -3 -7 -101 -7 -217 l1 -213 60 0 c78 -1 1620 -1 1660
0 l31 0 -1 218 0 217 -868 0 c-478 0 -872 -2 -876 -5z"/>
<path d="M3065 2620 c-1 -3 -2 -101 -2 -217 l0 -213 46 -1 c37 0 699 0 802 1
l25 0 1 215 c1 157 -2 215 -10 216 -38 4 -859 3 -862 -1z"/>
<path d="M4382 2615 c-4 -5 -7 -103 -7 -217 l0 -208 45 0 c180 -1 780 -1 803
-1 l27 1 0 218 0 217 -431 0 c-283 0 -433 -3 -437 -10z"/>
<path d="M875 1533 l0 -218 855 -2 c470 -2 864 -1 875 2 19 4 20 12 20 220 l0
215 -875 0 -875 0 0 -217z"/>
<path d="M3063 1531 l-1 -219 434 0 c397 -1 433 1 438 16 2 9 4 108 4 220 l0
202 -438 0 -437 0 0 -219z"/>
<path d="M4374 1533 l1 -218 438 -2 437 -2 0 219 0 220 -438 0 -438 0 0 -217z"/>
</g>
</svg>
